<svg viewBox="0 0 640 400" xmlns="http://www.w3.org/2000/svg" font-family="sans-serif">
  <rect x="0" y="0" width="640" height="400" fill="white"/>
  <line x1="55" y1="360" x2="620" y2="360" stroke="#e5e7eb" stroke-width="1"/><text x="47" y="364" font-size="11" text-anchor="end" fill="#6b7280">0</text>
  <line x1="55" y1="275" x2="620" y2="275" stroke="#e5e7eb" stroke-width="1"/><text x="47" y="279" font-size="11" text-anchor="end" fill="#6b7280">0.25</text>
  <line x1="55" y1="190" x2="620" y2="190" stroke="#e5e7eb" stroke-width="1"/><text x="47" y="194" font-size="11" text-anchor="end" fill="#6b7280">0.5</text>
  <line x1="55" y1="105" x2="620" y2="105" stroke="#e5e7eb" stroke-width="1"/><text x="47" y="109" font-size="11" text-anchor="end" fill="#6b7280">0.75</text>
  <line x1="55" y1="20" x2="620" y2="20" stroke="#e5e7eb" stroke-width="1"/><text x="47" y="24" font-size="11" text-anchor="end" fill="#6b7280">1</text>
  <text x="55" y="376" font-size="11" text-anchor="middle" fill="#6b7280">0.3</text>
  <text x="111.49999999999999" y="376" font-size="11" text-anchor="middle" fill="#6b7280">0.35</text>
  <text x="168.00000000000006" y="376" font-size="11" text-anchor="middle" fill="#6b7280">0.4</text>
  <text x="224.50000000000003" y="376" font-size="11" text-anchor="middle" fill="#6b7280">0.45</text>
  <text x="281" y="376" font-size="11" text-anchor="middle" fill="#6b7280">0.5</text>
  <text x="337.50000000000006" y="376" font-size="11" text-anchor="middle" fill="#6b7280">0.55</text>
  <text x="394" y="376" font-size="11" text-anchor="middle" fill="#6b7280">0.6</text>
  <text x="450.50000000000006" y="376" font-size="11" text-anchor="middle" fill="#6b7280">0.65</text>
  <text x="506.99999999999994" y="376" font-size="11" text-anchor="middle" fill="#6b7280">0.7</text>
  <text x="563.5" y="376" font-size="11" text-anchor="middle" fill="#6b7280">0.75</text>
  <text x="620" y="376" font-size="11" text-anchor="middle" fill="#6b7280">0.8</text>
  <text x="320" y="394" font-size="12" text-anchor="middle" fill="#111827">Euclidean distance threshold</text>
  <text x="14" y="200" font-size="12" text-anchor="middle" fill="#111827" transform="rotate(-90 14 200)">Rate</text>
  <polyline points="55,360 111.49999999999999,360 168.00000000000006,360 224.50000000000003,360 281,360 337.50000000000006,360 394,360 450.50000000000006,338.06451612903226 506.99999999999994,327.09677419354836 563.5,272.258064516129 620,217.41935483870967" fill="none" stroke="#dc2626" stroke-width="2"/>
  <polyline points="55,52.90322580645162 111.49999999999999,63.87096774193548 168.00000000000006,107.74193548387096 224.50000000000003,206.4516129032258 281,283.22580645161287 337.50000000000006,338.06451612903226 394,349.03225806451616 450.50000000000006,360 506.99999999999994,360 563.5,360 620,360" fill="none" stroke="#2563eb" stroke-width="2"/>
  <circle cx="470" cy="26" r="4" fill="#dc2626"/>
  <text x="480" y="30" font-size="12" fill="#111827">FAR (accepts an impostor)</text>
  <circle cx="470" cy="42" r="4" fill="#2563eb"/>
  <text x="480" y="46" font-size="12" fill="#111827">FRR (rejects a genuine match)</text>
</svg>